<svg width="1080" height="1080" viewBox="0 0 1080 1080" fill="none" xmlns="http://w3.org">

<style>
  /* 1. CONFIGURARE IMPLICITĂ: BROWSER LUMINOS (Light Mode) */
  .fav-primary { fill: #15110E; }   /* Corpul chitarei devine închis */
  .fav-accent  { fill: #7F8266; }   /* Verdele măsliniu (se vede excelent) */
  .fav-bg-rect { fill: #15110E; }   /* Fundalul clapelor de pian devine închis */
  .fav-lines   { fill: #EBE5DC; stroke: #EBE5DC; } /* Clapele și liniile devin ivoriu deschis */

  /* 2. CONFIGURARE DYNAMICĂ: BROWSER ÎNTUNECAT (Dark Mode) */
  @media (prefers-color-scheme: dark) {
    .fav-primary { fill: #EBE5DC; } /* Corpul chitarei devine ivoriu cald */
    .fav-accent  { fill: #7F8266; } /* Verdele rămâne neschimbat */
    .fav-bg-rect { fill: #26211C; } /* Fundalul clapelor devine maro-cărbune */
    .fav-lines   { fill: #15110E; stroke: #15110E; } /* Liniile devin espresso închis */
  }
</style>

<rect class="fav-primary" x="473.638" width="133.746" height="180.557" rx="4"/>
<rect class="fav-primary" x="493.7" y="180.557" width="93.6223" height="464.768"/>
<circle class="fav-lines" cx="620.759" cy="40.1238" r="16.7183"/>
<circle class="fav-lines" cx="460.263" cy="40.1238" r="16.7183"/>
<circle class="fav-lines" cx="620.759" cy="86.935" r="16.7183"/>
<circle class="fav-lines" cx="460.263" cy="86.935" r="16.7183"/>
<circle class="fav-lines" cx="620.759" cy="133.746" r="16.7183"/>
<circle class="fav-lines" cx="460.263" cy="133.746" r="16.7183"/>
<path class="fav-primary" d="M708.427 672.074C674.991 764.407 633.577 839.257 541.245 839.257C448.912 839.257 407.498 764.407 374.062 672.074C340.625 579.742 315.166 504.892 541.245 504.892C767.323 504.892 741.864 579.742 708.427 672.074Z"/>
<path class="fav-accent" d="M747.818 872.693C781.255 987.185 721.877 1080 540.512 1080C359.146 1080 299.768 987.185 333.205 872.693C366.642 758.201 426.019 631.95 540.512 665.387C655.004 631.95 714.381 758.201 747.818 872.693Z"/>
<circle class="fav-lines" cx="540.511" cy="688.793" r="80.2477"/>
<rect class="fav-lines" x="423.483" y="866.006" width="234.056" height="46.8111"/>
<line class="fav-lines" x1="576.791" y1="866.006" x2="576.791" y2="131.888"/>
<line class="fav-lines" x1="563.417" y1="866.006" x2="563.417" y2="86.0061"/>
<line class="fav-lines" x1="550.042" y1="866.006" x2="550.042" y2="40.1238"/>
<line class="fav-lines" x1="536.667" y1="866.006" x2="536.667" y2="40.1238"/>
<line class="fav-lines" x1="523.293" y1="866.006" x2="523.293" y2="86.0061"/>
<path class="fav-lines" d="M510.418 866.006L507.074 131.888"/>
<line class="fav-lines" x1="607.384" y1="132.389" x2="577.291" y2="132.389"/>
<line class="fav-lines" x1="507.074" y1="132.389" x2="473.638" y2="132.389"/>
<line class="fav-lines" x1="607.384" y1="86.5062" x2="563.917" y2="86.5062"/>
<line class="fav-lines" x1="523.793" y1="86.5062" x2="473.638" y2="86.5062"/>
<line class="fav-lines" x1="607.384" y1="40.6238" x2="550.542" y2="40.6238"/>
<line class="fav-lines" x1="537.167" y1="40.6238" x2="473.638" y2="40.6238"/>
<rect class="fav-bg-rect" y="247.43" width="1080" height="167.183" rx="4"/>
<rect class="fav-lines" x="13.3746" y="247.43" width="80.2477" height="127.059" rx="4"/>
<rect class="fav-lines" x="133.746" y="247.43" width="83.5913" height="127.059" rx="4"/>
<rect class="fav-lines" x="377.833" y="247.43" width="83.5913" height="127.059" rx="4"/>
<rect class="fav-lines" x="501.548" y="247.43" width="76.904" height="127.059" rx="4"/>
<rect class="fav-lines" x="618.576" y="247.43" width="83.5913" height="127.059" rx="4"/>
<rect class="fav-lines" x="862.663" y="247.43" width="83.5913" height="127.059" rx="4"/>
<rect class="fav-lines" x="986.378" y="247.43" width="80.2477" height="127.059" rx="4"/>
<path class="fav-accent" d="M0 251.43C0 249.221 1.79086 247.43 4 247.43H1076C1078.21 247.43 1080 249.221 1080 251.43V260.805H0V251.43Z"/>
<line class="fav-lines" x1="52.9984" y1="414.613" x2="52.9984" y2="260.805"/>
<line class="fav-lines" x1="176.714" y1="414.613" x2="176.714" y2="260.805"/>
<line class="fav-lines" x1="297.085" y1="414.613" x2="297.085" y2="260.805"/>
<line class="fav-lines" x1="420.8" y1="414.613" x2="420.8" y2="260.805"/>
<line class="fav-lines" x1="541.172" y1="414.613" x2="541.172" y2="260.805"/>
<line class="fav-lines" x1="661.543" y1="414.613" x2="661.543" y2="260.805"/>
<line class="fav-lines" x1="781.915" y1="414.613" x2="781.915" y2="260.805"/>
<line class="fav-lines" x1="905.63" y1="414.613" x2="905.63" y2="260.805"/>
<line class="fav-lines" x1="1026" y1="414.613" x2="1026" y2="260.805"/>

</svg>

