<?xml version="1.0" standalone="no"?>
<!DOCTYPE svg PUBLIC "-//W3C//DTD SVG 20010904//EN"
 "http://www.w3.org/TR/2001/REC-SVG-20010904/DTD/svg10.dtd">
<svg version="1.0" xmlns="http://www.w3.org/2000/svg"
 width="700.000000pt" height="700.000000pt" viewBox="0 0 700.000000 700.000000"
 preserveAspectRatio="xMidYMid meet">
<metadata>
Created by potrace 1.14, written by Peter Selinger 2001-2017
</metadata>
<g transform="translate(0.000000,700.000000) scale(0.100000,-0.100000)"
fill="#000000" stroke="none">
<path d="M3077 6993 c-4 -3 -7 -46 -7 -94 l0 -88 -35 20 c-56 34 -124 11 -151
-51 -24 -54 10 -125 70 -142 34 -11 43 -9 77 9 l39 21 0 -79 c0 -46 -4 -79
-10 -79 -5 0 -10 4 -10 9 0 5 -8 12 -17 15 -47 14 -73 13 -101 -4 -46 -28 -62
-67 -53 -129 0 -5 15 -23 32 -40 38 -38 92 -42 133 -10 l26 20 0 -80 c0 -45
-2 -81 -4 -81 -2 0 -17 7 -32 15 -101 53 -201 -57 -138 -152 31 -49 98 -60
150 -27 l23 16 3 -114 3 -113 63 -3 62 -3 0 -214 c0 -165 -3 -215 -12 -215 -7
-1 -726 -2 -1598 -3 l-1585 -2 -3 -537 -2 -538 22 -5 c13 -2 733 -3 1601 -2
l1577 2 0 -297 c0 -231 -3 -298 -12 -299 -333 -18 -611 -91 -751 -197 -129
-98 -182 -282 -137 -472 6 -26 13 -54 14 -61 15 -80 118 -378 186 -539 17 -41
36 -88 42 -105 6 -16 15 -35 20 -42 6 -7 -8 -39 -42 -93 -133 -213 -289 -593
-369 -905 -35 -133 -42 -182 -46 -305 -14 -492 295 -830 870 -950 105 -21 125
-24 245 -37 146 -15 604 -7 663 12 7 2 35 6 64 9 78 9 267 60 363 99 281 114
471 304 550 550 12 37 23 75 25 85 30 173 22 343 -26 529 -21 82 -121 390
-140 433 -7 14 -15 34 -19 45 -49 129 -144 323 -208 428 -23 37 -42 73 -42 80
0 10 19 58 81 202 42 96 147 403 170 495 44 172 40 303 -11 406 -92 187 -355
295 -803 329 -38 3 -72 7 -75 9 -6 3 -7 406 -3 561 l1 30 1578 -2 c867 -1
1585 1 1595 3 16 5 17 39 17 539 0 448 -2 534 -14 538 -8 3 -723 6 -1590 5
-866 0 -1579 2 -1583 5 -6 4 -9 330 -4 415 1 8 20 12 60 12 70 0 70 -1 68 138
-1 50 0 91 3 89 73 -44 137 -38 170 16 31 50 26 93 -14 133 -40 40 -83 45
-131 16 l-30 -19 2 71 c2 99 2 103 11 90 34 -51 131 -42 165 16 45 75 -1 156
-93 165 -8 0 -30 -7 -48 -17 -18 -10 -34 -18 -35 -18 -5 0 0 141 6 146 3 4 18
-1 31 -10 31 -20 59 -20 96 -1 39 20 60 53 60 93 0 91 -110 143 -175 82 l-20
-19 2 87 c0 48 -3 93 -9 100 -8 9 -106 12 -428 12 -229 0 -420 -3 -423 -7z"/>
</g>
</svg>
